<?xml version="1.0" encoding="utf-8"?>
<svg viewBox="48.063 19.661 212.79 40.177" xmlns="http://www.w3.org/2000/svg">
  <g transform="matrix(1, 0, 0, 1, -208.442856, -167.072525)">
    <path d="M 292.506 207.021 C 292.506 209.384 292.041 211.725 291.136 213.909 C 290.232 216.093 288.906 218.077 287.234 219.748 C 285.563 221.42 283.579 222.746 281.395 223.65 C 279.211 224.555 276.87 225.021 274.506 225.021 C 272.143 225.021 269.802 224.555 267.618 223.65 C 265.434 222.746 263.45 221.42 261.778 219.748 C 260.107 218.077 258.781 216.093 257.877 213.909 C 256.972 211.725 256.506 209.384 256.506 207.021 L 265.506 207.021 C 265.506 208.202 265.739 209.373 266.191 210.465 C 266.644 211.557 267.307 212.549 268.142 213.385 C 268.978 214.22 269.97 214.883 271.062 215.335 C 272.154 215.788 273.324 216.021 274.506 216.021 C 275.688 216.021 276.859 215.788 277.951 215.335 C 279.042 214.883 280.035 214.22 280.87 213.385 C 281.706 212.549 282.369 211.557 282.821 210.465 C 283.274 209.373 283.506 208.202 283.506 207.021 L 292.506 207.021 Z" style="fill: rgb(147, 25, 254);"/>
    <path d="M 256.506 207.021 C 256.506 204.657 256.972 202.316 257.877 200.132 C 258.781 197.948 260.107 195.964 261.778 194.293 C 263.45 192.621 265.434 191.295 267.618 190.391 C 269.802 189.486 272.143 189.021 274.506 189.021 C 276.87 189.021 279.211 189.486 281.395 190.391 C 283.579 191.295 285.563 192.621 287.234 194.293 C 288.906 195.964 290.232 197.948 291.136 200.132 C 292.041 202.316 292.506 204.657 292.506 207.021 L 283.506 207.021 C 283.506 205.839 283.274 204.668 282.821 203.576 C 282.369 202.484 281.706 201.492 280.87 200.657 C 280.035 199.821 279.042 199.158 277.95 198.706 C 276.859 198.253 275.688 198.021 274.506 198.021 C 273.324 198.021 272.154 198.253 271.062 198.706 C 269.97 199.158 268.978 199.821 268.142 200.657 C 267.307 201.492 266.644 202.484 266.191 203.576 C 265.739 204.668 265.506 205.839 265.506 207.021 L 256.506 207.021 Z" style="fill: rgb(253, 243, 255);"/>
    <path d="M 306.203 215.772 L 306.203 212 L 299.062 212 L 299.062 208.338 L 306.448 199.268 L 311.758 199.268 L 311.758 208.082 L 314.651 208.082 L 314.651 211.988 L 311.758 211.988 L 311.758 215.772 Z M 302.651 208.057 L 306.203 208.069 L 306.203 203.663 Z" style="fill: rgb(51, 51, 51); white-space: pre;"/>
    <path d="M 315.706 215.772 L 315.706 211.561 L 317.659 211.561 L 317.659 200.55 L 315.706 200.55 L 315.706 196.338 L 324.568 196.338 Q 329.976 196.338 332.795 198.823 Q 335.615 201.307 335.615 206.08 Q 335.615 210.84 332.808 213.306 Q 330 215.772 324.556 215.772 Z M 324.006 211.683 L 324.678 211.683 Q 326.826 211.683 327.754 210.383 Q 328.682 209.083 328.682 206.043 Q 328.682 203.016 327.754 201.722 Q 326.826 200.428 324.678 200.428 L 324.006 200.428 Z" style="fill: rgb(51, 51, 51); white-space: pre;"/>
    <path d="M 342.409 215.772 L 342.409 211.561 L 344.362 211.561 L 344.362 200.55 L 342.409 200.55 L 342.409 196.338 L 352.895 196.338 Q 356.874 196.338 358.901 197.883 Q 360.927 199.427 360.927 202.503 Q 360.927 205.481 358.913 207.013 Q 356.899 208.545 353.017 208.545 L 350.563 208.545 L 350.563 211.561 L 354.103 211.561 L 354.103 215.772 Z M 352.187 200.428 L 350.563 200.428 L 350.563 204.822 L 352.065 204.822 Q 353.31 204.822 353.933 204.297 Q 354.555 203.772 354.555 202.625 Q 354.555 201.465 353.951 200.947 Q 353.347 200.428 352.187 200.428 Z" style="fill: rgb(51, 51, 51); white-space: pre;"/>
    <path d="M 361.849 215.772 L 361.849 212.11 L 363.741 212.11 L 363.741 200.855 L 361.849 200.855 L 361.849 197.522 L 369.601 196.729 L 369.601 212.11 L 371.493 212.11 L 371.493 215.772 Z" style="fill: rgb(51, 51, 51); white-space: pre;"/>
    <path d="M 377.021 215.992 Q 375.764 215.992 374.781 215.485 Q 373.798 214.979 373.243 214.087 Q 372.687 213.196 372.687 212.037 Q 372.687 210.23 374.079 209.156 Q 375.471 208.082 377.79 208.082 Q 378.596 208.082 379.328 208.179 Q 380.06 208.277 380.817 208.509 L 380.817 208.24 Q 380.817 207.129 380.14 206.629 Q 379.462 206.128 377.973 206.128 Q 376.899 206.128 375.8 206.409 Q 374.702 206.69 373.798 207.19 L 373.469 207.044 L 373.469 203.48 Q 374.75 202.979 376.38 202.723 Q 378.01 202.466 379.658 202.466 Q 383.308 202.466 384.992 203.687 Q 386.677 204.908 386.677 207.605 L 386.677 212.11 L 388.264 212.11 L 388.264 215.772 L 381.599 215.772 L 381 213.855 Q 380.427 214.856 379.371 215.424 Q 378.315 215.992 377.021 215.992 Z M 379.572 212.867 Q 379.902 212.867 380.262 212.751 Q 380.622 212.635 380.817 212.439 L 380.817 210.401 Q 380.512 210.267 380.201 210.218 Q 379.89 210.169 379.621 210.169 Q 378.998 210.169 378.577 210.535 Q 378.156 210.901 378.156 211.512 Q 378.156 212.134 378.547 212.501 Q 378.937 212.867 379.572 212.867 Z" style="fill: rgb(51, 51, 51); white-space: pre;"/>
    <path d="M 397.165 215.992 Q 394.272 215.992 392.697 214.667 Q 391.123 213.343 391.123 210.828 L 391.123 206.348 L 389.109 206.348 L 389.109 203.016 L 391.123 202.82 L 391.123 199.891 L 396.982 198.609 L 396.982 202.686 L 399.936 202.686 L 399.936 206.348 L 396.982 206.348 L 396.982 210.706 Q 396.982 211.439 397.342 211.847 Q 397.702 212.256 398.435 212.256 Q 398.862 212.256 399.161 212.177 Q 399.46 212.098 399.729 212.012 L 400.058 212.159 L 400.058 215.65 Q 399.362 215.809 398.661 215.9 Q 397.959 215.992 397.165 215.992 Z" style="fill: rgb(51, 51, 51); white-space: pre;"/>
    <path d="M 401.304 215.772 L 401.304 212.11 L 403.196 212.11 L 403.196 206.348 L 401.182 206.348 L 401.182 203.016 L 403.196 202.82 L 403.196 201.917 Q 403.196 199.451 404.789 198.102 Q 406.382 196.753 409.361 196.753 Q 410.203 196.753 410.911 196.839 Q 411.619 196.924 412.315 197.095 L 412.315 200.586 L 411.985 200.733 Q 411.716 200.647 411.405 200.568 Q 411.094 200.489 410.63 200.489 Q 409.812 200.489 409.434 200.898 Q 409.055 201.307 409.055 202.039 L 409.055 202.686 L 412.009 202.686 L 412.009 206.348 L 409.055 206.348 L 409.055 212.11 L 412.009 212.11 L 412.009 215.772 Z" style="fill: rgb(51, 51, 51); white-space: pre;"/>
    <path d="M 420.331 215.992 Q 418.036 215.992 416.37 215.174 Q 414.703 214.356 413.806 212.842 Q 412.909 211.329 412.909 209.241 Q 412.909 207.142 413.806 205.628 Q 414.703 204.114 416.37 203.29 Q 418.036 202.466 420.331 202.466 Q 422.626 202.466 424.292 203.29 Q 425.958 204.114 426.855 205.628 Q 427.753 207.142 427.753 209.241 Q 427.753 211.329 426.855 212.842 Q 425.958 214.356 424.292 215.174 Q 422.626 215.992 420.331 215.992 Z M 420.331 212.439 Q 421.979 212.439 421.979 209.229 Q 421.979 206.019 420.331 206.019 Q 418.683 206.019 418.683 209.229 Q 418.683 212.439 420.331 212.439 Z" style="fill: rgb(51, 51, 51); white-space: pre;"/>
    <path d="M 429.304 215.772 L 429.304 212.11 L 431.074 212.11 L 431.074 206.507 L 429.304 206.507 L 429.304 203.174 L 436.812 202.454 L 436.812 204.957 Q 437.532 203.626 438.802 203.016 Q 440.071 202.405 441.231 202.405 L 441.231 207.654 Q 440.132 207.276 439.217 207.276 Q 438.606 207.276 437.935 207.49 Q 437.263 207.703 436.934 208.069 L 436.934 212.11 L 439.741 212.11 L 439.741 215.772 Z" style="fill: rgb(51, 51, 51); white-space: pre;"/>
    <path d="M 442.634 215.772 L 442.634 212.11 L 444.404 212.11 L 444.404 206.507 L 442.634 206.507 L 442.634 203.174 L 450.142 202.454 L 450.142 204.053 Q 450.898 203.284 452.022 202.869 Q 453.145 202.454 454.414 202.454 Q 456.978 202.454 457.979 204.236 Q 458.918 203.382 460.121 202.918 Q 461.323 202.454 462.532 202.454 Q 464.876 202.454 465.931 203.687 Q 466.987 204.92 466.987 207.422 L 466.987 212.11 L 468.696 212.11 L 468.696 215.772 L 461.128 215.772 L 461.128 207.422 Q 461.128 206.739 460.829 206.428 Q 460.53 206.116 460.078 206.116 Q 459.712 206.116 459.309 206.336 Q 458.906 206.556 458.626 206.971 L 458.626 212.11 L 459.724 212.11 L 459.724 215.772 L 452.766 215.772 L 452.766 207.422 Q 452.766 206.739 452.467 206.428 Q 452.168 206.116 451.716 206.116 Q 451.35 206.116 450.947 206.336 Q 450.544 206.556 450.264 206.971 L 450.264 212.11 L 451.362 212.11 L 451.362 215.772 Z" style="fill: rgb(51, 51, 51); white-space: pre;"/>
  </g>
</svg>