<?xml version="1.0" encoding="utf-8"?>
<svg viewBox="48.063 21.948 175.062 36" xmlns="http://www.w3.org/2000/svg">
  <g transform="matrix(1, 0, 0, 1, -208.442856, -167.072525)">
    <path d="M 292.506 207.021 C 292.506 209.384 292.041 211.725 291.136 213.909 C 290.232 216.093 288.906 218.077 287.234 219.748 C 285.563 221.42 283.579 222.746 281.395 223.65 C 279.211 224.555 276.87 225.021 274.506 225.021 C 272.143 225.021 269.802 224.555 267.618 223.65 C 265.434 222.746 263.45 221.42 261.778 219.748 C 260.107 218.077 258.781 216.093 257.877 213.909 C 256.972 211.725 256.506 209.384 256.506 207.021 L 265.506 207.021 C 265.506 208.202 265.739 209.373 266.191 210.465 C 266.644 211.557 267.307 212.549 268.142 213.385 C 268.978 214.22 269.97 214.883 271.062 215.335 C 272.154 215.788 273.324 216.021 274.506 216.021 C 275.688 216.021 276.859 215.788 277.951 215.335 C 279.042 214.883 280.035 214.22 280.87 213.385 C 281.706 212.549 282.369 211.557 282.821 210.465 C 283.274 209.373 283.506 208.202 283.506 207.021 L 292.506 207.021 Z" style="fill: rgb(147, 25, 254);"/>
    <path d="M 256.506 207.021 C 256.506 204.657 256.972 202.316 257.877 200.132 C 258.781 197.948 260.107 195.964 261.778 194.293 C 263.45 192.621 265.434 191.295 267.618 190.391 C 269.802 189.486 272.143 189.021 274.506 189.021 C 276.87 189.021 279.211 189.486 281.395 190.391 C 283.579 191.295 285.563 192.621 287.234 194.293 C 288.906 195.964 290.232 197.948 291.136 200.132 C 292.041 202.316 292.506 204.657 292.506 207.021 L 283.506 207.021 C 283.506 205.839 283.274 204.668 282.821 203.576 C 282.369 202.484 281.706 201.492 280.87 200.657 C 280.035 199.821 279.042 199.158 277.95 198.706 C 276.859 198.253 275.688 198.021 274.506 198.021 C 273.324 198.021 272.154 198.253 271.062 198.706 C 269.97 199.158 268.978 199.821 268.142 200.657 C 267.307 201.492 266.644 202.484 266.191 203.576 C 265.739 204.668 265.506 205.839 265.506 207.021 L 256.506 207.021 Z" style="fill: rgb(253, 243, 255);"/>
    <text style="fill: rgb(51, 51, 51); font-family: &quot;Bauhaus 93&quot;; font-size: 25px; white-space: pre;" x="298.513" y="215.772">4D Platform</text>
  </g>
</svg>