<?xml version="1.0" encoding="utf-8"?>
<svg viewBox="48.063 19.66 212.79 40.177" xmlns="http://www.w3.org/2000/svg">
  <g>
    <path d="M 84.063 39.948 C 84.063 42.311 83.598 44.652 82.693 46.836 C 81.789 49.02 80.463 51.004 78.791 52.675 C 77.12 54.347 75.136 55.673 72.952 56.577 C 70.768 57.482 68.427 57.948 66.063 57.948 C 63.7 57.948 61.359 57.482 59.175 56.577 C 56.991 55.673 55.007 54.347 53.335 52.675 C 51.664 51.004 50.338 49.02 49.434 46.836 C 48.529 44.652 48.063 42.311 48.063 39.948 L 57.063 39.948 C 57.063 41.129 57.296 42.3 57.748 43.392 C 58.201 44.484 58.864 45.476 59.699 46.312 C 60.535 47.147 61.527 47.81 62.619 48.262 C 63.711 48.715 64.881 48.948 66.063 48.948 C 67.245 48.948 68.416 48.715 69.508 48.262 C 70.599 47.81 71.592 47.147 72.427 46.312 C 73.263 45.476 73.926 44.484 74.378 43.392 C 74.831 42.3 75.063 41.129 75.063 39.948 L 84.063 39.948 Z" style="fill: rgb(151, 45, 151);"/>
    <path d="M 48.063 39.948 C 48.063 37.584 48.529 35.243 49.434 33.059 C 50.338 30.875 51.664 28.891 53.335 27.22 C 55.007 25.548 56.991 24.222 59.175 23.318 C 61.359 22.413 63.7 21.948 66.063 21.948 C 68.427 21.948 70.768 22.413 72.952 23.318 C 75.136 24.222 77.12 25.548 78.791 27.22 C 80.463 28.891 81.789 30.875 82.693 33.059 C 83.598 35.243 84.063 37.584 84.063 39.948 L 75.063 39.948 C 75.063 38.766 74.831 37.595 74.378 36.503 C 73.926 35.411 73.263 34.419 72.427 33.584 C 71.592 32.748 70.599 32.085 69.507 31.633 C 68.416 31.18 67.245 30.948 66.063 30.948 C 64.881 30.948 63.711 31.18 62.619 31.633 C 61.527 32.085 60.535 32.748 59.699 33.584 C 58.864 34.419 58.201 35.411 57.748 36.503 C 57.296 37.595 57.063 38.766 57.063 39.948 L 48.063 39.948 Z" style="paint-order: fill; fill: rgb(151, 45, 151); fill-opacity: 0.25;"/>
    <path d="M 97.76 48.699 L 97.76 44.927 L 90.619 44.927 L 90.619 41.265 L 98.005 32.195 L 103.315 32.195 L 103.315 41.009 L 106.208 41.009 L 106.208 44.915 L 103.315 44.915 L 103.315 48.699 Z M 94.208 40.984 L 97.76 40.996 L 97.76 36.59 Z" style="fill: rgb(51, 51, 51); white-space: pre;"/>
    <path d="M 107.263 48.699 L 107.263 44.488 L 109.216 44.488 L 109.216 33.477 L 107.263 33.477 L 107.263 29.265 L 116.125 29.265 Q 121.533 29.265 124.352 31.75 Q 127.172 34.234 127.172 39.007 Q 127.172 43.767 124.365 46.233 Q 121.557 48.699 116.113 48.699 Z M 115.563 44.61 L 116.235 44.61 Q 118.383 44.61 119.311 43.31 Q 120.239 42.01 120.239 38.97 Q 120.239 35.943 119.311 34.649 Q 118.383 33.355 116.235 33.355 L 115.563 33.355 Z" style="fill: rgb(51, 51, 51); white-space: pre;"/>
    <path d="M 133.966 48.699 L 133.966 44.488 L 135.919 44.488 L 135.919 33.477 L 133.966 33.477 L 133.966 29.265 L 144.452 29.265 Q 148.431 29.265 150.458 30.81 Q 152.484 32.354 152.484 35.43 Q 152.484 38.408 150.47 39.94 Q 148.456 41.472 144.574 41.472 L 142.12 41.472 L 142.12 44.488 L 145.66 44.488 L 145.66 48.699 Z M 143.744 33.355 L 142.12 33.355 L 142.12 37.749 L 143.622 37.749 Q 144.867 37.749 145.49 37.224 Q 146.112 36.699 146.112 35.552 Q 146.112 34.392 145.508 33.874 Q 144.904 33.355 143.744 33.355 Z" style="fill: rgb(51, 51, 51); white-space: pre;"/>
    <path d="M 153.406 48.699 L 153.406 45.037 L 155.298 45.037 L 155.298 33.782 L 153.406 33.782 L 153.406 30.449 L 161.158 29.656 L 161.158 45.037 L 163.05 45.037 L 163.05 48.699 Z" style="fill: rgb(51, 51, 51); white-space: pre;"/>
    <path d="M 168.578 48.919 Q 167.321 48.919 166.338 48.412 Q 165.355 47.906 164.8 47.014 Q 164.244 46.123 164.244 44.964 Q 164.244 43.157 165.636 42.083 Q 167.028 41.009 169.347 41.009 Q 170.153 41.009 170.885 41.106 Q 171.617 41.204 172.374 41.436 L 172.374 41.167 Q 172.374 40.056 171.697 39.556 Q 171.019 39.055 169.53 39.055 Q 168.456 39.055 167.357 39.336 Q 166.259 39.617 165.355 40.117 L 165.026 39.971 L 165.026 36.407 Q 166.307 35.906 167.937 35.65 Q 169.567 35.393 171.215 35.393 Q 174.865 35.393 176.549 36.614 Q 178.234 37.835 178.234 40.532 L 178.234 45.037 L 179.821 45.037 L 179.821 48.699 L 173.156 48.699 L 172.557 46.782 Q 171.984 47.783 170.928 48.351 Q 169.872 48.919 168.578 48.919 Z M 171.129 45.794 Q 171.459 45.794 171.819 45.678 Q 172.179 45.562 172.374 45.366 L 172.374 43.328 Q 172.069 43.194 171.758 43.145 Q 171.447 43.096 171.178 43.096 Q 170.555 43.096 170.134 43.462 Q 169.713 43.828 169.713 44.439 Q 169.713 45.061 170.104 45.428 Q 170.494 45.794 171.129 45.794 Z" style="fill: rgb(51, 51, 51); white-space: pre;"/>
    <path d="M 188.722 48.919 Q 185.829 48.919 184.254 47.594 Q 182.68 46.27 182.68 43.755 L 182.68 39.275 L 180.666 39.275 L 180.666 35.943 L 182.68 35.747 L 182.68 32.818 L 188.539 31.536 L 188.539 35.613 L 191.493 35.613 L 191.493 39.275 L 188.539 39.275 L 188.539 43.633 Q 188.539 44.366 188.899 44.774 Q 189.259 45.183 189.992 45.183 Q 190.419 45.183 190.718 45.104 Q 191.017 45.025 191.286 44.939 L 191.615 45.086 L 191.615 48.577 Q 190.919 48.736 190.218 48.827 Q 189.516 48.919 188.722 48.919 Z" style="fill: rgb(51, 51, 51); white-space: pre;"/>
    <path d="M 192.861 48.699 L 192.861 45.037 L 194.753 45.037 L 194.753 39.275 L 192.739 39.275 L 192.739 35.943 L 194.753 35.747 L 194.753 34.844 Q 194.753 32.378 196.346 31.029 Q 197.939 29.68 200.917 29.68 Q 201.76 29.68 202.468 29.766 Q 203.176 29.851 203.872 30.022 L 203.872 33.513 L 203.542 33.66 Q 203.273 33.574 202.962 33.495 Q 202.651 33.416 202.187 33.416 Q 201.369 33.416 200.991 33.825 Q 200.612 34.234 200.612 34.966 L 200.612 35.613 L 203.566 35.613 L 203.566 39.275 L 200.612 39.275 L 200.612 45.037 L 203.566 45.037 L 203.566 48.699 Z" style="fill: rgb(51, 51, 51); white-space: pre;"/>
    <path d="M 211.888 48.919 Q 209.593 48.919 207.927 48.101 Q 206.26 47.283 205.363 45.769 Q 204.466 44.256 204.466 42.168 Q 204.466 40.069 205.363 38.555 Q 206.26 37.041 207.927 36.217 Q 209.593 35.393 211.888 35.393 Q 214.183 35.393 215.849 36.217 Q 217.515 37.041 218.412 38.555 Q 219.31 40.069 219.31 42.168 Q 219.31 44.256 218.412 45.769 Q 217.515 47.283 215.849 48.101 Q 214.183 48.919 211.888 48.919 Z M 211.888 45.366 Q 213.536 45.366 213.536 42.156 Q 213.536 38.946 211.888 38.946 Q 210.24 38.946 210.24 42.156 Q 210.24 45.366 211.888 45.366 Z" style="fill: rgb(51, 51, 51); white-space: pre;"/>
    <path d="M 220.861 48.699 L 220.861 45.037 L 222.631 45.037 L 222.631 39.434 L 220.861 39.434 L 220.861 36.101 L 228.369 35.381 L 228.369 37.884 Q 229.089 36.553 230.359 35.943 Q 231.628 35.332 232.788 35.332 L 232.788 40.581 Q 231.689 40.203 230.774 40.203 Q 230.163 40.203 229.492 40.417 Q 228.82 40.63 228.491 40.996 L 228.491 45.037 L 231.298 45.037 L 231.298 48.699 Z" style="fill: rgb(51, 51, 51); white-space: pre;"/>
    <path d="M 234.191 48.699 L 234.191 45.037 L 235.961 45.037 L 235.961 39.434 L 234.191 39.434 L 234.191 36.101 L 241.699 35.381 L 241.699 36.98 Q 242.455 36.211 243.579 35.796 Q 244.702 35.381 245.971 35.381 Q 248.535 35.381 249.536 37.163 Q 250.475 36.309 251.678 35.845 Q 252.88 35.381 254.089 35.381 Q 256.433 35.381 257.488 36.614 Q 258.544 37.847 258.544 40.349 L 258.544 45.037 L 260.253 45.037 L 260.253 48.699 L 252.685 48.699 L 252.685 40.349 Q 252.685 39.666 252.386 39.355 Q 252.087 39.043 251.635 39.043 Q 251.269 39.043 250.866 39.263 Q 250.463 39.483 250.183 39.898 L 250.183 45.037 L 251.281 45.037 L 251.281 48.699 L 244.323 48.699 L 244.323 40.349 Q 244.323 39.666 244.024 39.355 Q 243.725 39.043 243.273 39.043 Q 242.907 39.043 242.504 39.263 Q 242.101 39.483 241.821 39.898 L 241.821 45.037 L 242.919 45.037 L 242.919 48.699 Z" style="fill: rgb(51, 51, 51); white-space: pre;"/>
  </g>
</svg>